<?xml version="1.0" standalone="no"?>
<!DOCTYPE svg PUBLIC "-//W3C//DTD SVG 20010904//EN"
 "http://www.w3.org/TR/2001/REC-SVG-20010904/DTD/svg10.dtd">
<svg version="1.0" xmlns="http://www.w3.org/2000/svg"
 width="260.000000pt" height="260.000000pt" viewBox="0 0 260.000000 260.000000"
 preserveAspectRatio="xMidYMid meet">
<metadata>
Created by potrace 1.11, written by Peter Selinger 2001-2013
</metadata>
<g transform="translate(0.000000,260.000000) scale(0.100000,-0.100000)"
fill="#000000" stroke="none">
<path d="M122 1300 l0 -890 191 -1 c454 -1 482 1 582 51 155 76 244 239 247
454 1 98 -7 151 -34 225 -29 77 -104 150 -186 182 -60 23 -79 39 -46 39 29 0
86 33 125 72 75 76 115 209 106 351 -17 237 -121 353 -357 396 -30 5 -184 10
-342 11 l-286 1 0 -891z m533 595 c98 -25 143 -138 113 -282 -23 -107 -67
-134 -220 -138 -59 -1 -109 1 -109 4 -4 15 -5 407 -2 417 5 13 166 12 218 -1z
m47 -719 c41 -20 82 -74 95 -126 13 -48 9 -167 -7 -215 -34 -107 -92 -137
-250 -133 l-105 3 -1 240 c0 132 1 243 3 246 1 4 53 6 115 5 84 -2 122 -7 150
-20z"/>
<path d="M1390 1300 l0 -890 75 -1 c95 -1 152 -1 213 0 l47 1 -1 344 -1 344
58 4 59 3 71 -175 c39 -96 103 -253 141 -347 l70 -173 178 0 178 0 -169 385
c-93 211 -169 388 -169 393 0 5 12 15 26 23 40 21 108 102 138 163 35 72 57
181 57 286 1 298 -114 463 -361 515 -45 10 -148 14 -337 15 l-273 1 0 -891z
m512 591 c44 -14 84 -53 104 -99 22 -51 25 -193 7 -257 -32 -106 -82 -141
-209 -144 l-81 -2 0 253 c0 139 4 256 9 259 14 9 133 2 170 -10z"/>
</g>
</svg>
